<?xml version="1.0" encoding="utf-8"?>
<!-- Generator: Adobe Illustrator 16.0.0, SVG Export Plug-In . SVG Version: 6.00 Build 0)  -->
<!DOCTYPE svg PUBLIC "-//W3C//DTD SVG 1.1//EN" "http://www.w3.org/Graphics/SVG/1.1/DTD/svg11.dtd">
<svg version="1.1" id="Ebene_1" xmlns="http://www.w3.org/2000/svg" xmlns:xlink="http://www.w3.org/1999/xlink" x="0px" y="0px"
	 width="244.914px" height="102.047px" viewBox="0 0 244.914 102.047" enable-background="new 0 0 244.914 102.047"
	 xml:space="preserve">
<path fill="#003858" d="M3.614,83.363v-6.676h6.019c4.604,0,7.433-2.861,7.433-6.908c0-4.043-2.83-7.07-7.433-7.07h-9.834v20.654
	H3.614L3.614,83.363z M3.614,73.07v-6.742h5.723c2.697,0,3.914,1.513,3.914,3.354c0,1.844-1.218,3.389-3.914,3.389H3.614
	L3.614,73.07z M27.875,83.363h3.815v-4.274h10.722v4.274h3.815V71.13c0-4.769-3.65-8.848-9.177-8.848
	c-5.525,0-9.176,4.079-9.176,8.848L27.875,83.363L27.875,83.363z M31.69,75.505v-3.553c0-3.782,2.401-6.052,5.36-6.052
	c2.994,0,5.361,2.27,5.361,6.052v3.553H31.69L31.69,75.505z M58.604,83.363h3.814v-6.512h4.671l4.309,6.512H76.2l-5.164-7.366
	c2.763-0.854,4.834-3.224,4.834-6.218c0-4.043-2.828-7.07-7.433-7.07h-9.834L58.604,83.363L58.604,83.363z M62.418,73.234v-6.906
	h5.723c2.697,0,3.914,1.611,3.914,3.451c0,1.844-1.217,3.455-3.914,3.455H62.418L62.418,73.234z M90.615,83.363V77.38l2.369-2.665
	l6.314,8.648h4.737l-8.322-11.51l8.091-9.146h-5.098l-8.092,9.375v-9.375H86.8v20.653h3.815V83.363z M118.055,83.363v-8.516h9.439
	v8.516h3.814V62.709h-3.814v8.585h-9.439v-8.585h-3.815v20.654H118.055L118.055,83.363z M142.436,73.038
	c0,6.051,4.902,10.756,11.082,10.756c6.185,0,11.086-4.705,11.086-10.756c0-6.054-4.901-10.756-11.086-10.756
	C147.338,62.282,142.436,66.984,142.436,73.038L142.436,73.038z M153.518,80.173c-3.715,0-7.067-3.122-7.067-7.135
	c0-4.015,3.354-7.138,7.067-7.138c3.719,0,7.072,3.123,7.072,7.138C160.59,77.051,157.236,80.173,153.518,80.173L153.518,80.173z
	 M180.797,83.363h3.813V66.328h6.054v-3.619h-15.918v3.619h6.053L180.797,83.363L180.797,83.363z M205.01,79.746v-4.898h9.705
	v-3.554h-9.705v-4.966h12.039v-3.619h-15.854v20.654h15.854v-3.617H205.01L205.01,79.746z M229.359,83.363h15.756v-3.617h-11.939
	V62.709h-3.816V83.363L229.359,83.363z"/>
<g>
	<path fill="#D6B36A" d="M93.669,101.682h-1.994V95.07h1.994c2.167,0,3.512,1.115,3.512,3.229
		C97.181,100.543,95.837,101.682,93.669,101.682L93.669,101.682z M93.669,95.764h-1.258v5.223h1.258c1.68,0,2.764-0.898,2.764-2.687
		C96.434,96.63,95.35,95.764,93.669,95.764L93.669,95.764z M106.782,101.682h-0.813l-1.896-2.256h-1.702v2.256h-0.737V95.07h2.342
		c1.732,0,2.644,0.77,2.644,2.188c0,1.072-0.704,1.853-1.767,2.091l1.929,2.266V101.682L106.782,101.682z M105.872,97.259
		c0-0.965-0.651-1.485-1.886-1.495h-1.615v2.969h1.691C105.146,98.732,105.872,98.18,105.872,97.259L105.872,97.259z
		 M115.494,100.986v0.693h-4.421V95.07h4.324v0.691h-3.587v2.232h3.142v0.693h-3.142v2.297h3.684V100.986z M121.746,95.622
		c-0.801,0-1.278,0.467-1.278,0.965c0,0.79,0.51,0.954,1.854,1.397c1.354,0.455,2.038,0.877,2.038,1.973
		c0,1.289-0.986,1.82-2.125,1.82c-0.976,0-2.07-0.357-2.839-0.932l0.303-0.563c0.802,0.52,1.744,0.812,2.503,0.812
		c0.889,0,1.397-0.367,1.397-1.039c0-0.759-0.39-1.029-1.875-1.496c-1.235-0.391-2.017-0.692-2.017-1.906
		c0-0.998,0.792-1.69,2.049-1.69c0.749,0,1.604,0.174,2.384,0.532l-0.236,0.596C123.168,95.764,122.474,95.622,121.746,95.622
		L121.746,95.622z M130.852,101.682h-1.994V95.07h1.994c2.168,0,3.51,1.115,3.51,3.229
		C134.361,100.543,133.02,101.682,130.852,101.682L130.852,101.682z M130.852,95.764h-1.259v5.223h1.259
		c1.68,0,2.762-0.898,2.762-2.687C133.613,96.63,132.529,95.764,130.852,95.764L130.852,95.764z M143.236,100.986v0.693h-4.42V95.07
		h4.322v0.691h-3.588v2.232h3.145v0.693h-3.145v2.297h3.686V100.986z M152.557,101.682l-4.063-5.345v5.345h-0.738V95.07h0.672
		l4.075,5.363v-0.185V95.07h0.735v6.609h-0.682V101.682z"/>
</g>
<g>
	<path fill-rule="evenodd" clip-rule="evenodd" fill="#D6B36A" d="M133.37,7.31c0,2.756,0,6.466,0,9.223v0.028
		c-1.855,0-3.711,0-5.568,0v-0.028c0-2.757,0-6.467,0-9.223C129.659,7.31,131.515,7.31,133.37,7.31L133.37,7.31z M132.96,8.415
		h-1.965v7.088h1.965V8.415L132.96,8.415z M130.179,8.415h-1.967v7.088h1.967V8.415L130.179,8.415z M122.048,15.503V8.415h-1.965
		v7.088H122.048L122.048,15.503z M122.866,8.415v7.088h1.965V8.415H122.866L122.866,8.415z M125.243,7.31c0,2.756,0,6.466,0,9.223
		v0.028h-5.57v-0.028c0-2.757,0-6.467,0-9.223C121.529,7.31,123.386,7.31,125.243,7.31L125.243,7.31z M113.917,15.503V8.415h-1.964
		v7.088H113.917L113.917,15.503z M114.737,8.415v7.088h1.964V8.415H114.737L114.737,8.415z M117.113,7.31c0,2.756,0,6.466,0,9.223
		v0.028h-0.206h-5.158h-0.205v-0.028c0-2.757,0-6.467,0-9.223C113.401,7.31,115.257,7.31,117.113,7.31L117.113,7.31z"/>
	<path fill-rule="evenodd" clip-rule="evenodd" fill="#D6B36A" d="M133.337,34.449v12.452h-5.617V34.449H133.337L133.337,34.449z
		 M169.122,32.531h-3.686v-3.73h-0.002l0.002-0.165c0.027-2.41-0.527-4.672-2.885-5.79c-1.863-0.883-4.229-0.884-6.094-0.004
		c-2.363,1.115-2.924,3.379-2.893,5.794v0.165h-0.004v3.717h-3.682v-3.717h-0.002l0.002-0.165c0.027-2.41-0.527-4.672-2.885-5.79
		c-1.863-0.883-4.229-0.884-6.094-0.004c-2.363,1.115-2.924,3.379-2.896,5.794l0.004,0.165h-0.004v3.717h-1.904V19.783h44.924
		v-0.712h-58.566H63.989v0.712h44.825v12.734h-1.905v-3.717h-0.004l0.002-0.165c0.029-2.415-0.529-4.679-2.893-5.794
		c-1.865-0.88-4.231-0.879-6.096,0.004c-2.357,1.118-2.913,3.38-2.884,5.79l0.003,0.165h-0.004v3.717h-3.684v-3.717h-0.002
		l0.001-0.165c0.03-2.415-0.529-4.679-2.894-5.794c-1.865-0.88-4.23-0.879-6.094,0.004c-2.357,1.118-2.915,3.38-2.886,5.79
		l0.002,0.165h-0.003v3.723h-3.683v-3.723h-0.004l0.003-0.165c0.029-2.415-0.529-4.679-2.894-5.794
		c-1.864-0.88-4.231-0.879-6.095,0.004c-2.357,1.118-2.914,3.38-2.885,5.79l0.002,0.165h-0.003v15.59H27.785v2.767H-0.201v1.498
		h64.324c5.591,0.096,12.751-0.176,15.349,1.97l0.005-0.003v0.003h29.489c4.412,0.329,9.085,0.491,13.492,0.491
		c4.406,0,9.078-0.162,13.492-0.491h29.486v-0.003l0.006,0.003c2.598-2.146,9.758-1.874,15.348-1.97h64.326v-1.498h-28.074v-2.767
		h-36.045v-15.59h-0.004v-0.165c0.031-2.41-0.525-4.672-2.883-5.79c-1.865-0.883-4.23-0.884-6.094-0.004
		c-2.365,1.115-2.922,3.379-2.895,5.794l0.004,0.165h-0.004V32.531L169.122,32.531z M179.565,32.531h-9.012v-2.299h9.012V32.531
		L179.565,32.531z M170.554,34.168h9.012v11.58h-9.012V34.168L170.554,34.168z M74.36,32.508H65.35v-2.275h9.011V32.508
		L74.36,32.508z M65.35,34.145h9.011v11.604H65.35V34.145L65.35,34.145z M133.884,22.53h-6.711c0,8.352,0,16.565,0,24.917h6.711
		C133.884,39.096,133.884,30.882,133.884,22.53L133.884,22.53z M134.155,22.258h-7.254c0,8.532,0,16.93,0,25.462h7.254
		C134.155,39.188,134.155,30.79,134.155,22.258L134.155,22.258z M117.194,34.449v12.452h-5.617V34.449H117.194L117.194,34.449z
		 M117.74,22.53h-6.709c0,8.352,0,16.565,0,24.917h6.709C117.74,39.096,117.74,30.882,117.74,22.53L117.74,22.53z M118.014,22.258
		h-7.256c0,8.532,0,16.93,0,25.462h7.256C118.014,39.188,118.014,30.79,118.014,22.258L118.014,22.258z M118.828,47.72h7.257
		c0-8.532,0-16.93,0-25.462h-7.257C118.828,30.79,118.828,39.188,118.828,47.72L118.828,47.72z M59.205,18.354h63.253h63.25v0.409
		h-63.25H59.205V18.354L59.205,18.354z M164.005,30.232h-9.01v2.288h9.01V30.232L164.005,30.232z M96.466,34.157h9.011v11.585
		h-9.011V34.157L96.466,34.157z M99.204,28.619v-4.74c-0.231,0.072-0.457,0.159-0.672,0.261c-1.549,0.734-2.093,2.181-2.064,4.479
		H99.204L99.204,28.619z M102.743,23.88v4.739h2.732c0.027-2.302-0.519-3.749-2.072-4.482
		C103.19,24.037,102.97,23.952,102.743,23.88L102.743,23.88z M102.197,28.619v-4.88c-0.799-0.166-1.649-0.166-2.447-0.001v4.881
		H102.197L102.197,28.619z M95.382,29.142l-0.006-0.51c-0.027-2.263,0.458-4.419,2.689-5.477c1.771-0.841,4.03-0.842,5.803-0.005
		c2.237,1.056,2.726,3.214,2.697,5.481l-0.006,0.51h0.008v17.691H95.374V29.142H95.382L95.382,29.142z M95.648,29.414v3.925v13.222
		h10.646V33.339v-3.925h-0.01l0.01-0.786c0.025-2.171-0.418-4.229-2.541-5.23c-1.699-0.802-3.873-0.801-5.57,0.003
		c-2.118,1.005-2.559,3.062-2.533,5.228l0.009,0.786H95.648L95.648,29.414z M96.466,30.232h9.011v2.288h-9.011V30.232L96.466,30.232
		z M80.908,30.232h9.011v2.288h-9.011V30.232L80.908,30.232z M80.908,34.157h9.011v11.585h-9.011V34.157L80.908,34.157z
		 M83.647,28.619v-4.74c-0.232,0.072-0.457,0.159-0.672,0.261c-1.549,0.734-2.094,2.181-2.066,4.479H83.647L83.647,28.619z
		 M87.185,23.88v4.739h2.732c0.028-2.302-0.518-3.749-2.072-4.482C87.634,24.037,87.412,23.952,87.185,23.88L87.185,23.88z
		 M86.64,28.619v-4.88c-0.799-0.166-1.648-0.166-2.447-0.001v4.881H86.64L86.64,28.619z M79.824,29.142l-0.007-0.51
		c-0.027-2.264,0.459-4.419,2.69-5.477c1.771-0.841,4.03-0.842,5.804-0.005c2.236,1.056,2.725,3.214,2.697,5.481l-0.006,0.51h0.007
		v17.691H79.817V29.142H79.824L79.824,29.142z M80.09,29.414v3.925v13.222h10.647V33.339v-3.925h-0.01l0.009-0.786
		c0.025-2.171-0.418-4.229-2.542-5.23c-1.699-0.802-3.873-0.801-5.57,0.003c-2.117,1.005-2.559,3.062-2.533,5.228l0.009,0.786H80.09
		L80.09,29.414z M68.09,28.619v-4.74c-0.232,0.072-0.457,0.159-0.673,0.261c-1.549,0.734-2.094,2.181-2.065,4.479H68.09
		L68.09,28.619z M71.627,23.88v4.739h2.732c0.028-2.302-0.519-3.749-2.072-4.482C72.075,24.037,71.854,23.952,71.627,23.88
		L71.627,23.88z M71.081,28.619v-4.88c-0.798-0.166-1.647-0.166-2.446-0.001v4.881H71.081L71.081,28.619z M64.267,29.142
		l-0.006-0.51c-0.028-2.264,0.457-4.419,2.688-5.477c1.771-0.84,4.03-0.842,5.803-0.005c2.238,1.056,2.726,3.213,2.699,5.481
		l-0.007,0.51h0.007v17.691H64.259V29.142H64.267L64.267,29.142z M64.531,29.414v17.146H75.18V29.414h-0.011l0.01-0.786
		c0.025-2.171-0.418-4.229-2.542-5.23c-1.699-0.802-3.873-0.801-5.57,0.003c-2.118,1.005-2.56,3.062-2.533,5.228l0.009,0.786H64.531
		L64.531,29.414z M148.448,34.157h-9.01v11.585h9.01V34.157L148.448,34.157z M145.71,28.619v-4.74
		c0.23,0.072,0.459,0.159,0.674,0.261c1.549,0.734,2.092,2.181,2.064,4.479H145.71L145.71,28.619z M142.173,23.88v4.739h-2.734
		c-0.029-2.302,0.518-3.749,2.074-4.482C141.724,24.037,141.946,23.952,142.173,23.88L142.173,23.88z M142.716,28.619v-4.88
		c0.801-0.166,1.648-0.166,2.447-0.001v4.881H142.716L142.716,28.619z M138.353,29.142l-0.006-0.51
		c-0.027-2.268,0.461-4.426,2.699-5.481c1.771-0.837,4.031-0.836,5.805,0.005c2.23,1.058,2.713,3.214,2.689,5.477l-0.008,0.51h0.008
		v17.691h-11.193V29.142H138.353L138.353,29.142z M149.267,29.414v3.925v13.222H138.62V33.339v-3.925h0.01l-0.01-0.786
		c-0.025-2.171,0.418-4.229,2.541-5.23c1.699-0.802,3.873-0.801,5.572,0.003c2.117,1.005,2.557,3.062,2.533,5.228l-0.01,0.786
		H149.267L149.267,29.414z M148.448,30.232h-9.01v2.288h9.01V30.232L148.448,30.232z M164.005,34.157h-9.01v11.585h9.01V34.157
		L164.005,34.157z M161.267,28.619v-4.74c0.234,0.072,0.459,0.159,0.674,0.261c1.549,0.734,2.092,2.181,2.064,4.479H161.267
		L161.267,28.619z M157.729,23.88v4.739h-2.732c-0.027-2.302,0.52-3.749,2.072-4.482C157.28,24.037,157.503,23.952,157.729,23.88
		L157.729,23.88z M158.274,28.619v-4.88c0.799-0.166,1.648-0.166,2.449-0.001v4.881H158.274L158.274,28.619z M153.913,29.142
		l-0.006-0.51c-0.029-2.268,0.461-4.426,2.697-5.481c1.77-0.837,4.033-0.836,5.803,0.005c2.23,1.058,2.717,3.213,2.689,5.477
		l-0.006,0.51h0.006v17.691h-11.193V29.142H153.913L153.913,29.142z M164.825,29.414v3.925v13.222h-10.648V33.339v-3.925h0.01
		l-0.01-0.786c-0.025-2.171,0.418-4.229,2.545-5.23c1.695-0.802,3.871-0.801,5.568,0.003c2.117,1.005,2.561,3.062,2.533,5.228
		l-0.01,0.786H164.825L164.825,29.414z M176.823,28.619v-4.74c0.234,0.072,0.459,0.159,0.674,0.261
		c1.549,0.734,2.092,2.181,2.064,4.479H176.823L176.823,28.619z M173.286,23.88v4.739h-2.732c-0.027-2.302,0.52-3.749,2.072-4.482
		C172.841,24.037,173.062,23.952,173.286,23.88L173.286,23.88z M173.833,28.619v-4.88c0.799-0.166,1.646-0.166,2.447-0.001v4.881
		H173.833L173.833,28.619z M169.47,29.142l-0.006-0.51c-0.029-2.269,0.461-4.426,2.697-5.481c1.773-0.837,4.033-0.835,5.803,0.005
		c2.23,1.058,2.717,3.213,2.689,5.477l-0.006,0.51h0.008v17.691h-11.191V29.142H169.47L169.47,29.142z M180.382,29.414v17.146
		h-10.648V29.414h0.012l-0.008-0.786c-0.029-2.171,0.418-4.229,2.541-5.23c1.699-0.802,3.873-0.801,5.568,0.003
		c2.117,1.005,2.561,3.062,2.535,5.228l-0.01,0.786H180.382L180.382,29.414z"/>
	<polygon fill-rule="evenodd" clip-rule="evenodd" fill="#D6B36A" points="79.469,4.52 86.761,4.383 108.919,3.671 122.421,0 
		122.451,0.007 122.48,0 135.983,3.671 158.142,4.383 165.464,4.52 165.464,5.392 122.451,5.392 79.469,5.392 79.469,4.52 	"/>
	<path fill-rule="evenodd" clip-rule="evenodd" fill="#D6B36A" d="M136.085,16.611c0-3.099,0-6.197,0-9.296V7.31h44.93V8.4h-43.842
		c0,2.798,0.027,5.434,0.027,8.211H136.085L136.085,16.611z"/>
	<path fill-rule="evenodd" clip-rule="evenodd" fill="#D6B36A" d="M108.831,16.611c0-3.099,0-6.197,0-9.296V7.31H63.989V8.4h43.752
		l-0.018,8.211H108.831L108.831,16.611z"/>
</g>
</svg>
