<svg xmlns="http://www.w3.org/2000/svg" version="1.1" xmlns:xlink="http://www.w3.org/1999/xlink" xmlns:svgjs="http://svgjs.dev/svgjs" width="128" height="128" viewBox="0 0 128 128"><g transform="matrix(0.8046875,0,0,0.8046875,12.5,12.5)"><svg viewBox="0 0 200 200" data-background-color="#ffffff" preserveAspectRatio="xMidYMid meet" height="128" width="128" xmlns="http://www.w3.org/2000/svg" xmlns:xlink="http://www.w3.org/1999/xlink"><g id="tight-bounds" transform="matrix(1,0,0,1,0,0)"><svg viewBox="0 0 200 200" height="200" width="200"><g><svg></svg></g><g><svg viewBox="0 0 200 200" height="200" width="200"><g><path d="M0 100c0-55.228 44.772-100 100-100 55.228 0 100 44.772 100 100 0 55.228-44.772 100-100 100-55.228 0-100-44.772-100-100z" fill="#f1e109" fill-rule="nonzero" stroke="none" stroke-width="1" stroke-linecap="butt" stroke-linejoin="miter" stroke-miterlimit="10" stroke-dasharray="" stroke-dashoffset="0" font-family="none" font-weight="none" font-size="none" text-anchor="none" style="mix-blend-mode: normal" data-fill-palette-color="tertiary"></path></g><g transform="matrix(1,0,0,1,75.28,74.3412658227848)"><svg viewBox="0 0 49.44 51.31746835443038" height="51.31746835443038" width="49.44"><g><svg viewBox="0 0 49.44 51.31746835443038" height="51.31746835443038" width="49.44"><g><svg viewBox="0 0 49.44 51.31746835443038" height="51.31746835443038" width="49.44"><g><svg viewBox="0 0 49.44 51.31746835443038" height="51.31746835443038" width="49.44"><g><svg viewBox="0 0 49.44 51.31746835443038" height="51.31746835443038" width="49.44"><g transform="matrix(1,0,0,1,0,0)"><svg width="49.44" viewBox="4.49 -36.57 34.720000000000006 36.03" height="51.31746835443038" data-palette-color="#ffffff"><path d="M39.21-24.51L39.21-24.51Q39.21-23.44 39.09-21.92 38.96-20.41 38.7-18.85 38.43-17.29 37.94-15.92 37.45-14.55 36.72-13.77L36.72-13.77Q36.43-13.43 34.84-13.11 33.25-12.79 31.03-12.48 28.81-12.16 26.27-11.87 23.73-11.57 21.46-11.35 19.19-11.13 17.53-10.99 15.87-10.84 15.43-10.84L15.43-10.84 15.04-0.68Q13.53-0.59 12.06-0.66 10.6-0.73 9.08-0.73L9.08-0.73Q8.11-0.73 7.13-0.68 6.15-0.63 5.18-0.54L5.18-0.54Q5.18-5.13 5.18-9.62 5.18-14.11 4.98-18.7L4.98-18.7Q4.83-22.85 4.71-26.95 4.59-31.05 4.49-35.21L4.49-35.21Q9.52-35.55 14.62-36.06 19.73-36.57 24.8-36.57L24.8-36.57Q25.68-36.57 27.59-36.4 29.49-36.23 31.59-35.86 33.69-35.5 35.47-34.96 37.26-34.42 37.84-33.74L37.84-33.74Q38.23-33.3 38.5-32.03 38.77-30.76 38.92-29.32 39.06-27.88 39.14-26.51 39.21-25.15 39.21-24.51ZM25.54-24.85L25.54-24.85Q25.54-25.29 25.49-25.98 25.44-26.66 25.32-27.32 25.2-27.98 24.95-28.54 24.71-29.1 24.32-29.35L24.32-29.35Q24.07-29.49 23.54-29.59 23-29.69 22.41-29.74 21.83-29.79 21.29-29.81 20.75-29.83 20.51-29.83L20.51-29.83Q18.7-29.83 16.89-29.64 15.09-29.44 13.23-29.15L13.23-29.15Q13.38-27.69 13.4-26.27 13.43-24.85 13.43-23.44L13.43-23.44Q13.43-21.14 13.57-18.8L13.57-18.8Q14.21-18.8 15.77-18.87 17.33-18.95 19.04-19.12 20.75-19.29 22.27-19.6 23.78-19.92 24.32-20.46L24.32-20.46Q25.2-21.29 25.37-22.49 25.54-23.68 25.54-24.85Z" opacity="1" transform="matrix(1,0,0,1,0,0)" fill="#ffffff" class="undefined-text-0" data-fill-palette-color="quaternary" id="text-0"></path></svg></g></svg></g></svg></g></svg></g></svg></g></svg></g></svg></g><defs></defs></svg><rect width="200" height="200" fill="none" stroke="none" visibility="hidden"></rect></g></svg></g></svg>