<svg xmlns="http://www.w3.org/2000/svg" version="1.1" xmlns:xlink="http://www.w3.org/1999/xlink" xmlns:svgjs="http://svgjs.dev/svgjs" width="1000" height="625" viewBox="0 0 1000 625"><g transform="matrix(1,0,0,1,0,0)"><svg viewBox="0 0 512 320" data-background-color="#ffffff" preserveAspectRatio="xMidYMid meet" height="625" width="1000" xmlns="http://www.w3.org/2000/svg" xmlns:xlink="http://www.w3.org/1999/xlink"><g id="tight-bounds" transform="matrix(1,0,0,1,0,0)"><svg viewBox="0 0 512 320" height="320" width="512"><g><svg></svg></g><g><svg viewBox="0 0 512 320" height="320" width="512"><g><path xmlns="http://www.w3.org/2000/svg" d="M96 160c0-88.366 71.634-160 160-160 88.366 0 160 71.634 160 160 0 88.366-71.634 160-160 160-88.366 0-160-71.634-160-160z" fill="#f1e109" fill-rule="nonzero" stroke="none" stroke-width="1" stroke-linecap="butt" stroke-linejoin="miter" stroke-miterlimit="10" stroke-dasharray="" stroke-dashoffset="0" font-family="none" font-weight="none" font-size="none" text-anchor="none" style="mix-blend-mode: normal" data-fill-palette-color="tertiary"></path></g><g transform="matrix(1,0,0,1,153.6,104.9590677348871)"><svg viewBox="0 0 204.8 110.08186453022579" height="110.08186453022579" width="204.8"><g><svg viewBox="0 0 204.8 110.08186453022579" height="110.08186453022579" width="204.8"><g><svg viewBox="0 0 204.8 110.08186453022579" height="110.08186453022579" width="204.8"><g><svg viewBox="0 0 204.8 110.08186453022579" height="110.08186453022579" width="204.8"><g><svg viewBox="0 0 204.8 110.08186453022579" height="110.08186453022579" width="204.8"><g><svg viewBox="0 0 204.8 110.08186453022579" height="110.08186453022579" width="204.8"><g transform="matrix(1,0,0,1,0,0)"><svg width="204.8" viewBox="4.489999771118164 -36.56999969482422 67.04000091552734 36.029998779296875" height="110.08186453022579" data-palette-color="#ffffff"><path d="M39.21-24.51L39.21-24.51Q39.21-23.44 39.09-21.92 38.96-20.41 38.7-18.85 38.43-17.29 37.94-15.92 37.45-14.55 36.72-13.77L36.72-13.77Q36.43-13.43 34.84-13.11 33.25-12.79 31.03-12.48 28.81-12.16 26.27-11.87 23.73-11.57 21.46-11.35 19.19-11.13 17.53-10.99 15.87-10.84 15.43-10.84L15.43-10.84 15.04-0.68Q13.53-0.59 12.06-0.66 10.6-0.73 9.08-0.73L9.08-0.73Q8.11-0.73 7.13-0.68 6.15-0.63 5.18-0.54L5.18-0.54Q5.18-5.13 5.18-9.62 5.18-14.11 4.98-18.7L4.98-18.7Q4.83-22.85 4.71-26.95 4.59-31.05 4.49-35.21L4.49-35.21Q9.52-35.55 14.62-36.06 19.73-36.57 24.8-36.57L24.8-36.57Q25.68-36.57 27.59-36.4 29.49-36.23 31.59-35.86 33.69-35.5 35.47-34.96 37.26-34.42 37.84-33.74L37.84-33.74Q38.23-33.3 38.5-32.03 38.77-30.76 38.92-29.32 39.06-27.88 39.14-26.51 39.21-25.15 39.21-24.51ZM25.54-24.85L25.54-24.85Q25.54-25.29 25.49-25.98 25.44-26.66 25.32-27.32 25.2-27.98 24.95-28.54 24.71-29.1 24.32-29.35L24.32-29.35Q24.07-29.49 23.54-29.59 23-29.69 22.41-29.74 21.83-29.79 21.29-29.81 20.75-29.83 20.51-29.83L20.51-29.83Q18.7-29.83 16.89-29.64 15.09-29.44 13.23-29.15L13.23-29.15Q13.38-27.69 13.4-26.27 13.43-24.85 13.43-23.44L13.43-23.44Q13.43-21.14 13.57-18.8L13.57-18.8Q14.21-18.8 15.77-18.87 17.33-18.95 19.04-19.12 20.75-19.29 22.27-19.6 23.78-19.92 24.32-20.46L24.32-20.46Q25.2-21.29 25.37-22.49 25.54-23.68 25.54-24.85ZM71.53-33.89L71.53-33.89 71.24-27.54Q69.72-27.64 68.21-27.69 66.7-27.73 65.18-27.73L65.18-27.73Q64.55-27.73 63.38-27.71 62.2-27.69 60.76-27.64 59.32-27.59 57.81-27.49 56.3-27.39 55.03-27.29 53.76-27.2 52.88-27.05 52-26.9 51.8-26.76L51.8-26.76Q51.17-26.12 51.17-25.29L51.17-25.29Q51.17-24.76 51.46-24.41L51.46-24.41Q51.56-24.27 52.54-24.17 53.51-24.07 54.93-24 56.35-23.93 58.03-23.9 59.71-23.88 61.25-23.85 62.79-23.83 63.99-23.78 65.18-23.73 65.67-23.68L65.67-23.68Q67.53-23.44 68.63-22.61 69.72-21.78 70.31-20.53 70.9-19.29 71.07-17.72 71.24-16.16 71.24-14.55L71.24-14.55Q71.24-13.77 71.12-12.7 70.99-11.62 70.75-10.55 70.51-9.47 70.04-8.54 69.58-7.62 68.94-7.08L68.94-7.08Q68.21-6.49 66.57-6.1 64.94-5.71 63.06-5.47 61.18-5.22 59.42-5.13 57.66-5.03 56.74-5.03L56.74-5.03Q53.51-5.03 50.29-5.4 47.07-5.76 43.89-6.2L43.89-6.2 43.89-15.53Q46.97-14.89 50.07-14.79 53.17-14.7 56.3-14.45L56.3-14.45Q56.93-14.4 58.23-14.38 59.52-14.36 60.84-14.43 62.16-14.5 63.23-14.75 64.3-14.99 64.55-15.43L64.55-15.43Q64.65-15.58 64.65-15.77 64.65-15.97 64.65-16.11L64.65-16.11Q64.65-16.5 64.57-17.11 64.5-17.72 64.26-18.07L64.26-18.07Q64.21-18.12 63.91-18.14 63.62-18.16 63.57-18.16L63.57-18.16Q60.84-18.31 58.1-18.33 55.37-18.36 52.59-18.6L52.59-18.6Q51.46-18.7 50.31-18.82 49.17-18.95 48.04-19.19L48.04-19.19Q47.12-19.38 46.36-19.63 45.6-19.87 45.04-20.26 44.48-20.65 44.09-21.26 43.7-21.88 43.55-22.9L43.55-22.9Q43.45-23.24 43.45-23.56 43.45-23.88 43.45-24.27L43.45-24.27Q43.45-25.15 43.55-26.27 43.65-27.39 43.92-28.52 44.19-29.64 44.6-30.64 45.02-31.64 45.7-32.28L45.7-32.28Q46.14-32.71 47.26-33.01 48.39-33.3 49.85-33.52 51.32-33.74 52.98-33.89 54.64-34.03 56.17-34.11 57.71-34.18 58.96-34.2 60.2-34.23 60.84-34.23L60.84-34.23Q63.57-34.23 66.23-34.13 68.89-34.03 71.53-33.89Z" opacity="1" transform="matrix(1,0,0,1,0,0)" fill="#ffffff" class="undefined-text-0" data-fill-palette-color="quaternary" id="text-0"></path></svg></g></svg></g></svg></g></svg></g></svg></g></svg></g></svg></g></svg></g><defs></defs></svg><rect width="512" height="320" fill="none" stroke="none" visibility="hidden"></rect></g></svg></g></svg>